<svg xmlns="http://www.w3.org/2000/svg" viewBox="0 0 512 512">
  <defs>
    <linearGradient id="bg" x1="0" y1="0" x2="1" y2="1">
      <stop offset="0%" stop-color="#051430"/>
      <stop offset="100%" stop-color="#1b468c"/>
    </linearGradient>
    <radialGradient id="moon" cx="35%" cy="30%" r="55%">
      <stop offset="0%" stop-color="#f2fbff"/>
      <stop offset="60%" stop-color="#9bc6ff"/>
      <stop offset="100%" stop-color="#6b95e2"/>
    </radialGradient>
  </defs>
  <rect width="512" height="512" rx="96" fill="url(#bg)"/>
  <circle cx="210" cy="190" r="86" fill="url(#moon)"/>
  <path d="M127 321c12-38 45-60 85-60 19 0 38 6 52 18 7-5 15-7 24-7 24 0 43 20 43 44 0 3 0 5-1 8h23c24 0 44 20 44 44s-20 44-44 44H131c-28 0-51-23-51-51s23-51 51-51h-4c0-3 0-6 0-9z" fill="#e2efff" fill-opacity="0.9"/>
  <circle cx="344" cy="122" r="7" fill="#f4fbff"/>
  <circle cx="380" cy="164" r="5" fill="#e6f4ff"/>
  <circle cx="143" cy="123" r="5" fill="#d3e8ff"/>
</svg>
